<svg xmlns="http://www.w3.org/2000/svg" version="1.1" xmlns:xlink="http://www.w3.org/1999/xlink" xmlns:svgjs="http://svgjs.dev/svgjs" width="1000" height="381" viewBox="0 0 1000 381"><g transform="matrix(1,0,0,1,-0.6056348047761162,0.5884627133484059)"><svg viewBox="0 0 396 151" data-background-color="#ffffff" preserveAspectRatio="xMidYMid meet" height="381" width="1000" xmlns="http://www.w3.org/2000/svg" xmlns:xlink="http://www.w3.org/1999/xlink"><defs></defs><g id="tight-bounds" transform="matrix(1,0,0,1,0.24008861730862918,-0.2332227551590762)"><svg viewBox="0 0 395.52 151.46644551031815" height="151.46644551031815" width="395.52"><g><svg viewBox="0 0 395.52 151.46644551031815" height="151.46644551031815" width="395.52"><g><svg viewBox="0 0 395.52 151.46644551031815" height="151.46644551031815" width="395.52"><g><svg viewBox="0 0 395.52 151.46644551031815" height="151.46644551031815" width="395.52"><g><svg viewBox="0 0 395.52 109.537122765449" height="109.537122765449" width="395.52"><path d="M394.594 23.494C392.735 12.124 387.435 8.963 387.435 8.963 371.165-2.748 350.86-0.224 332.619 1.459 300.414 1.527 268.339 4.028 236.208 5.37 168.767 5.575 100.749 2.209 33.643 10.509 27.339 13.056-6.54 11.009 1.121 24.949 3.129 30.748 10.456 37.183 10.232 42.504 11.236 43.436 12.631 41.299 13.226 42.641 15.309 46.256 18.711 44.551 21.501 46.688 17.614 52.396 20.403 57.149 23.062 62.129 18.377 63.425 12.371 62.811 9.675 67.109 9.396 70.224 7.89 69.633 6.235 69.496 5.026 69.405 2.59 69.746 2.999 70.724 4.394 74.067-1.594 76 2.162 79.274-0.422 82.822 3.948 85.892 3.353 89.735 3.278 90.508 3.687 91.167 4.338 91.349 7.22 92.327 3.018 94.237 3.464 96.307 33.029 110.451 65.104 100.673 95.394 107.176 103.259 102.628 97.346 108.791 100.489 107.836 102.943 106.721 104.728 111.338 107.499 108.722 107.927 107.972 107.276 106.198 108.8 106.539 109.6 106.721 110.307 106.676 110.418 105.63 110.586 104.061 109.117 105.039 108.726 104.22 112.947 100.081 111.906 109.928 115.866 109.518 115.68 108.313 114.528 106.585 116.889 106.812 119.232 105.084 119.306 103.652 121.389 107.54 121.463 108.381 121.835 108.973 122.43 109.382 128.938 105.152 135.409 110.883 142.233 108.973 146.417 106.881 150.433 110.11 154.672 109.314 156.16 108.677 157.666 107.54 159.098 109.45 176.632 109.859 195.319 108.154 211.943 109.518 256.364 106.972 303.835 110.564 350.674 107.199 361.719 105.903 373.192 104.061 383.958 102.583 383.958 102.583 392.679 98.535 392.679 80.343S394.538 64.425 394.817 49.94C395.096 35.455 396.398 34.864 394.538 23.494Z" opacity="1" fill="#0080ff" data-fill-palette-color="tertiary"></path><g transform="matrix(1,0,0,1,55.76832,26.068561146666667)"><svg width="283.98335999999995" viewBox="-0.30000001192092896 -33.95000076293945 169.44000244140625 34.25" height="57.40000047211566" data-palette-color="#ffffff"><path d="M18.7-33.6Q21.5-33.6 23.88-32.93 26.25-32.25 28.7-30.8L28.7-30.8 29.85-31.75Q31.05-32.7 31.83-33.05 32.6-33.4 33.6-33.4L33.6-33.4Q34.8-33.4 35.5-32.88 36.2-32.35 36.2-31.35L36.2-31.35Q36.2-30.95 36.05-30.5L36.05-30.5 33.95-23.6Q33.6-22.4 33.08-21.9 32.55-21.4 31.5-21.4L31.5-21.4Q30.4-21.4 29.58-22.08 28.75-22.75 27-24.85L27-24.85Q25.25-26.85 23.83-27.68 22.4-28.5 20.9-28.5L20.9-28.5Q19.8-28.5 19.05-27.78 18.3-27.05 18.3-26L18.3-26Q18.3-24.8 19.5-23.78 20.7-22.75 23.25-21.2L23.25-21.2Q25.85-19.65 27.55-18.4 29.25-17.15 30.45-15.3 31.65-13.45 31.65-11.05L31.65-11.05Q31.65-9.5 31.15-7.95L31.15-7.95Q29.95-3.95 26.5-1.88 23.05 0.2 18.45 0.2L18.45 0.2Q15 0.2 12.65-0.6 10.3-1.4 7.85-3.3L7.85-3.3 6.05-1.8Q4.8-0.75 4-0.38 3.2 0 2.2 0L2.2 0Q1.05 0 0.38-0.55-0.3-1.1-0.3-2.05L-0.3-2.05Q-0.3-2.55-0.1-3.1L-0.1-3.1 2.35-10.55Q2.75-11.85 3.45-12.4 4.15-12.95 5.25-12.95L5.25-12.95Q6.4-12.95 7.33-12.15 8.25-11.35 9.75-9.25L9.75-9.25Q11.35-6.95 12.73-6.05 14.1-5.15 16-5.15L16-5.15Q17.35-5.15 18.07-5.58 18.8-6 19.1-6.95L19.1-6.95Q19.2-7.2 19.2-7.7L19.2-7.7Q19.2-8.9 18.05-9.9 16.9-10.9 14.5-12.3L14.5-12.3Q11.95-13.85 10.35-15.08 8.75-16.3 7.58-18.15 6.4-20 6.4-22.5L6.4-22.5Q6.4-24.25 6.95-25.95L6.95-25.95Q8-29.4 11.25-31.5 14.5-33.6 18.7-33.6L18.7-33.6ZM60.9-33.3Q66.2-33.3 69.07-31 71.95-28.7 71.95-24.9L71.95-24.9Q71.95-23.4 71.5-21.75L71.5-21.75Q70.1-16.75 65.97-14.35 61.85-11.95 55.55-11.95L55.55-11.95 50.4-11.95 48.7-5.9Q48.6-5.6 48.6-5.1L48.6-5.1Q48.6-4.4 48.92-3.95 49.25-3.5 49.9-2.9L49.9-2.9Q50.45-2.4 50.65-2.15 50.85-1.9 50.85-1.55L50.85-1.55Q50.85-0.7 50.05-0.35 49.25 0 47.7 0L47.7 0 35.15 0Q33.85 0 33.2-0.48 32.55-0.95 32.75-1.8L32.75-1.8Q32.85-2.25 33.12-2.53 33.4-2.8 33.95-3.15L33.95-3.15Q34.8-3.65 35.3-4.2 35.8-4.75 36.1-5.9L36.1-5.9 42.2-27.45Q42.4-28.1 42.4-28.7L42.4-28.7Q42.4-29.25 42.22-29.63 42.05-30 41.75-30.5L41.75-30.5Q41.3-31.15 41.3-31.55L41.3-31.55Q41.3-31.7 41.4-32.1L41.4-32.1Q41.6-32.75 42.27-33.02 42.95-33.3 44.35-33.3L44.35-33.3 60.9-33.3ZM59.6-22.65Q60.15-24.5 60.15-25.9L60.15-25.9Q60.15-28.8 57.45-28.8L57.45-28.8 55.2-28.8 51.65-16.45 53.85-16.45Q55.95-16.45 57.27-17.78 58.6-19.1 59.6-22.65L59.6-22.65ZM99.05-22.9L94.14-5.9Q93.94-5.25 93.94-4.6L93.94-4.6Q93.94-4.05 94.09-3.68 94.25-3.3 94.42-3.08 94.59-2.85 94.64-2.75L94.64-2.75Q95.14-2.25 95.14-1.75L95.14-1.75Q95.14-1.65 95.05-1.25L95.05-1.25Q94.84-0.55 94.17-0.28 93.5 0 92.09 0L92.09 0 80.25 0Q79.19 0 78.62-0.35 78.05-0.7 78.05-1.3L78.05-1.3Q78.05-1.6 78.19-1.95L78.19-1.95Q78.34-2.35 78.62-2.58 78.89-2.8 79.39-3.1L79.39-3.1Q80.19-3.55 80.69-4.1 81.19-4.65 81.55-5.9L81.55-5.9 82.84-10.2 75.05-10.2 73.69-7.35Q72.84-5.5 72.84-4.45L72.84-4.45Q72.84-3.85 73.05-3.48 73.25-3.1 73.64-2.7L73.64-2.7Q74-2.3 74.12-2.02 74.25-1.75 74.14-1.3L74.14-1.3Q73.94-0.55 73.32-0.28 72.69 0 71.34 0L71.34 0 63.89 0Q62.74 0 62.14-0.43 61.55-0.85 61.55-1.55L61.55-1.55Q61.55-2.35 62.12-2.83 62.7-3.3 63.84-3.85L63.84-3.85Q65.34-4.6 66.25-5.33 67.14-6.05 67.8-7.35L67.8-7.35 76.69-25.8Q78.75-30.1 81.52-32.02 84.3-33.95 88.84-33.95L88.84-33.95Q93.94-33.95 96.75-31.88 99.55-29.8 99.55-26.1L99.55-26.1Q99.55-24.55 99.05-22.9L99.05-22.9ZM77.34-15.2L84.34-15.2 87-24Q87.19-24.6 87.19-25.25L87.19-25.25Q87.19-26.2 86.67-26.68 86.14-27.15 85.19-27.15L85.19-27.15Q84-27.15 83.14-26.45 82.3-25.75 81.44-23.95L81.44-23.95 77.34-15.2ZM115.89 0.3Q111.69 0.3 108.34-1.25 104.99-2.8 103.02-5.83 101.04-8.85 101.04-13.15L101.04-13.15Q101.04-16.15 102.09-19.65L102.09-19.65Q104.39-27.15 109.04-30.48 113.69-33.8 118.99-33.8L118.99-33.8Q121.84-33.8 124.04-32.95 126.24-32.1 128.09-30.5L128.09-30.5 129.44-31.55Q130.79-32.6 131.72-33 132.64-33.4 133.79-33.4L133.79-33.4Q135.04-33.4 135.79-32.85 136.54-32.3 136.54-31.25L136.54-31.25Q136.54-30.7 136.34-30.15L136.34-30.15 133.54-22.35Q133.09-21 132.47-20.45 131.84-19.9 130.59-19.9L130.59-19.9Q129.29-19.9 128.47-20.83 127.64-21.75 126.59-24L126.59-24Q125.39-26.35 124.64-27.1 123.89-27.85 122.44-27.85L122.44-27.85Q120.39-27.85 118.49-25.33 116.59-22.8 115.04-17.75L115.04-17.75Q113.74-13.5 113.74-10.65L113.74-10.65Q113.74-8.15 114.69-6.93 115.64-5.7 117.24-5.7L117.24-5.7Q119.59-5.7 121.12-6.75 122.64-7.8 124.24-9.6L124.24-9.6Q125.24-10.7 125.87-11.23 126.49-11.75 127.19-11.75L127.19-11.75Q128.09-11.75 129.09-10.85 130.09-9.95 130.04-9.05L130.04-9.05Q130.09-7.95 128.27-5.65 126.44-3.35 123.22-1.53 119.99 0.3 115.89 0.3L115.89 0.3ZM165.24-33.3Q167.09-33.3 168.12-32.5 169.14-31.7 169.14-30.3L169.14-30.3Q169.14-29.6 168.94-28.95L168.94-28.95 167.64-24.3Q167.29-22.95 166.62-22.43 165.94-21.9 164.69-21.9L164.69-21.9Q163.49-21.9 162.81-22.43 162.14-22.95 161.79-24.15L161.79-24.15 160.99-27Q160.74-27.9 160.39-28.2 160.04-28.5 159.04-28.5L159.04-28.5 153.79-28.5 151.29-19.6 153.49-19.6Q153.84-19.6 154.44-20.1L154.44-20.1 156.14-21.6Q156.89-22.25 157.44-22.55 157.99-22.85 158.79-22.85L158.79-22.85Q159.69-22.85 160.27-22.38 160.84-21.9 160.84-21.15L160.84-21.15Q160.84-20.95 160.74-20.55L160.74-20.55 158.69-13.6Q158.39-12.5 157.67-11.98 156.94-11.45 156.09-11.45L156.09-11.45Q154.69-11.45 153.99-12.9L153.99-12.9 153.14-14.65Q152.79-15.4 152.04-15.4L152.04-15.4 150.09-15.4 147.14-4.8 151.54-4.8Q152.49-4.8 153.22-5.18 153.94-5.55 154.79-6.5L154.79-6.5 157.79-9.8Q158.59-10.65 159.31-11.03 160.04-11.4 161.09-11.4L161.09-11.4Q162.19-11.4 162.89-10.9 163.59-10.4 163.59-9.4L163.59-9.4Q163.59-9 163.44-8.45L163.44-8.45 161.99-3.4Q161.44-1.5 160.39-0.75 159.34 0 157.34 0L157.34 0 133.49 0Q132.44 0 131.87-0.35 131.29-0.7 131.29-1.3L131.29-1.3Q131.29-1.6 131.44-1.95L131.44-1.95Q131.64-2.5 132.09-2.8 132.54-3.1 132.64-3.15L132.64-3.15Q133.44-3.65 133.94-4.17 134.44-4.7 134.79-5.9L134.79-5.9 140.94-27.45Q141.14-28.1 141.14-28.65L141.14-28.65Q141.14-29.25 140.97-29.65 140.79-30.05 140.44-30.5L140.44-30.5Q139.99-31.15 139.99-31.55L139.99-31.55Q139.99-31.7 140.09-32.1L140.09-32.1Q140.29-32.75 140.99-33.02 141.69-33.3 143.04-33.3L143.04-33.3 165.24-33.3Z" opacity="1" transform="matrix(1,0,0,1,0,0)" fill="#ffffff" class="undefined-text-0" data-fill-palette-color="quaternary" id="text-0"></path></svg></g></svg></g><g transform="matrix(1,0,0,1,100.20869919763943,123.08788527690417)"><svg viewBox="0 0 195.10260160472112 28.378560233413978" height="28.378560233413978" width="195.10260160472112"><g transform="matrix(1,0,0,1,0,0)"><svg width="195.10260160472112" viewBox="0 -50 343.739990234375 50" height="28.378560233413978" data-palette-color="#0080ff"><path d="M12.5 0L0 0 0-37.5 37.5-37.5 37.5-31.25 43.75-31.25 43.75-18.75 37.5-18.75 37.5-12.5 12.5-12.5 12.5 0ZM12.5-31.25L12.5-18.75 31.25-18.75 31.25-31.25 12.5-31.25ZM68.75-37.5L68.75-31.25 75-31.25 75-25 68.75-25 68.75-6.25 56.25-6.25 56.25-37.5 68.75-37.5ZM75-37.5L93.75-37.5 93.75-31.25 75-31.25 75-37.5ZM131.25-43.75L118.75-43.75 118.75-50 131.25-50 131.25-43.75ZM143.75-6.25L106.25-6.25 106.25-12.5 118.75-12.5 118.75-31.25 112.5-31.25 112.5-37.5 131.25-37.5 131.25-12.5 143.75-12.5 143.75-6.25ZM181.24-6.25L168.74-6.25 168.74-12.5 162.49-12.5 162.49-18.75 156.24-18.75 156.24-37.5 168.74-37.5 168.74-18.75 181.24-18.75 181.24-37.5 193.74-37.5 193.74-18.75 187.49-18.75 187.49-12.5 181.24-12.5 181.24-6.25ZM243.74-6.25L206.24-6.25 206.24-12.5 199.99-12.5 199.99-18.75 206.24-18.75 206.24-25 231.24-25 231.24-31.25 206.24-31.25 206.24-37.5 237.49-37.5 237.49-31.25 243.74-31.25 243.74-6.25ZM212.49-18.75L212.49-12.5 231.24-12.5 231.24-18.75 212.49-18.75ZM281.24-6.25L268.74-6.25 268.74-31.25 256.24-31.25 256.24-37.5 268.74-37.5 268.74-50 281.24-50 281.24-37.5 293.74-37.5 293.74-31.25 281.24-31.25 281.24-6.25ZM337.49-6.25L306.24-6.25 306.24-12.5 299.99-12.5 299.99-31.25 306.24-31.25 306.24-37.5 337.49-37.5 337.49-31.25 343.74-31.25 343.74-18.75 312.49-18.75 312.49-12.5 337.49-12.5 337.49-6.25ZM312.49-31.25L312.49-25 331.24-25 331.24-31.25 312.49-31.25Z" opacity="1" transform="matrix(1,0,0,1,0,0)" fill="#0080ff" class="undefined-text-1" data-fill-palette-color="secondary" id="text-1"></path></svg></g></svg></g></svg></g></svg></g><g></g></svg></g></svg><rect width="395.52" height="151.46644551031815" fill="none" stroke="none" visibility="hidden"></rect></g></svg></g></svg>